<?xml version="1.0" encoding="utf-8"?>
<svg version="1.1" id="Capa_1" x="0px" y="0px" viewBox="0 0 297 297" style="enable-background:new 0 0 297 297;" xmlns="http://www.w3.org/2000/svg">
  <g transform="matrix(0.93398, 0, 0, 0.929026, 18.812191, 49.855312)" style="">
    <path d="M268.338,64.67H203.56l-13.586-27.446c-1.667-3.368-5.101-5.499-8.858-5.499h-48.923c-3.758,0-7.19,2.131-8.857,5.499 L109.749,64.67H28.662C12.858,64.67,0,77.527,0,93.332v143.281c0,15.804,12.858,28.662,28.662,28.662h239.676 c15.804,0,28.662-12.858,28.662-28.662V93.332C297,77.527,284.142,64.67,268.338,64.67z M138.328,51.492h36.651l6.523,13.178 h-49.697L138.328,51.492z M268.338,84.437c4.905,0,8.896,3.99,8.896,8.896v20.261h-36.379 c-15.049-13.226-34.745-21.255-56.278-21.255c-21.534,0-41.232,8.029-56.28,21.255H19.767V93.332c0-4.905,3.99-8.896,8.896-8.896 H268.338z M184.576,244.056c-36.242,0-65.728-29.597-65.728-65.976s29.485-65.976,65.728-65.976 c36.239,0,65.724,29.597,65.724,65.976S220.815,244.056,184.576,244.056z M19.767,236.613V133.36h91.893 c-7.974,13.028-12.578,28.345-12.578,44.72c0,27.331,12.817,51.716,32.739,67.428H28.662 C23.757,245.508,19.767,241.518,19.767,236.613z M268.338,245.508h-31.009c19.922-15.712,32.737-40.097,32.737-67.428 c0-16.375-4.604-31.691-12.576-44.72h19.743v103.253C277.233,241.518,273.243,245.508,268.338,245.508z" style="fill: rgb(255, 255, 255);"/>
    <path d="M184.576,127.988c-27.547,0-49.958,22.471-49.958,50.092s22.411,50.092,49.958,50.092 c27.545,0,49.955-22.471,49.955-50.092S212.121,127.988,184.576,127.988z M184.576,208.404c-16.648,0-30.191-13.604-30.191-30.324 s13.543-30.324,30.191-30.324c16.645,0,30.188,13.604,30.188,30.324S201.222,208.404,184.576,208.404z" style="fill: rgb(255, 255, 255);"/>
  </g>
  <g/>
  <g/>
  <g/>
  <g/>
  <g/>
  <g/>
  <g/>
  <g/>
  <g/>
  <g/>
  <g/>
  <g/>
  <g/>
  <g/>
  <g/>
  <g style="" transform="matrix(0.284042, 0, 0, 0.298398, 20.877037, -0.107953)">
    <path d="M 471.073 2.673 C 372.573 -8.827 321.473 18.773 294.873 47.473 C 244.873 101.373 252.873 203.273 241.673 241.373 C 222.373 259.373 209.073 282.273 198.973 306.173 C 193.373 295.673 186.573 285.973 178.073 277.873 C 168.473 181.273 155.173 163.273 141.573 147.573 C 122.773 126.773 83.773 107.573 18.573 115.273 C 11.273 115.273 5.073 120.473 1.873 126.773 C -1.227 134.073 -0.227 141.373 3.973 147.573 C 15.473 162.173 24.773 178.873 32.073 195.473 C 34.173 199.673 52.373 251.773 78.973 269.473 C 90.473 278.873 103.673 285.373 116.473 288.273 C 159.373 297.973 172.773 340.373 178.973 362.273 L 160.688 522.578 C 159.688 534.078 162.875 542.545 174.275 543.545 C 185.475 544.745 197.465 532.903 198.265 522.503 C 208.065 405.503 239.273 297.673 271.673 269.473 C 284.173 257.473 307.073 248.673 321.673 243.373 C 339.373 236.073 358.573 227.873 375.873 216.273 C 413.873 190.673 439.473 115.173 442.573 108.973 C 454.073 82.873 468.673 57.873 485.273 34.973 C 497.773 14.373 478.773 1.773 471.073 2.673 Z M 74.973 191.273 C 72.873 187.073 61.473 163.173 57.273 154.773 C 115.873 153.573 123.973 197.473 128.173 211.073 C 130.273 219.373 132.373 236.073 134.473 251.673 C 132.273 251.673 93.973 246.673 74.973 191.273 Z M 398.073 110.973 C 369.273 166.473 375.573 183.873 286.573 213.073 C 293.373 129.773 312.673 87.973 326.173 72.373 C 339.673 57.873 375.873 36.173 433.473 40.173 C 424.173 56.873 401.173 104.773 398.073 110.973 Z" style="fill: rgb(255, 255, 255);"/>
  </g>
</svg>