<svg id="Layer_1" data-name="Layer 1" xmlns="http://www.w3.org/2000/svg" viewBox="0 0 180 184.94"><defs><style>.cls-1{fill:#003da5;}.cls-2{fill:#fff;}</style></defs><path class="cls-1" d="M208.75,235.85a.41.41,0,0,0,.41.41h2a.43.43,0,0,0,.41-.41V229l5-7.16a.4.4,0,0,0-.35-.63H214a.43.43,0,0,0-.34.2l-3.44,4.94-3.45-4.94a.41.41,0,0,0-.34-.2h-2.2a.4.4,0,0,0-.34.63l4.91,7.18Zm-15.05,0a.43.43,0,0,0,.41.41h2a.43.43,0,0,0,.41-.41V223.77h3.29a.41.41,0,0,0,.41-.41V221.6a.41.41,0,0,0-.41-.41h-9.4a.41.41,0,0,0-.41.41v1.76a.41.41,0,0,0,.41.41h3.29Zm-11.45,0a.43.43,0,0,0,.41.41h2a.43.43,0,0,0,.41-.41V221.6a.43.43,0,0,0-.41-.41h-2a.43.43,0,0,0-.41.41Zm-15.13-1.06a6.9,6.9,0,0,0,4.73,1.68c3,0,5-2,5-4.26,0-2.78-2.41-4-4.49-4.86-1.75-.72-2.55-1.4-2.55-2.42a1.71,1.71,0,0,1,1.9-1.5,7.06,7.06,0,0,1,3,1.18.56.56,0,0,0,.75-.26l.82-1.22a.53.53,0,0,0-.13-.71,7.52,7.52,0,0,0-4.3-1.44c-3.43,0-4.84,2.21-4.84,4.13,0,2.54,2,3.83,4,4.65,1.81.73,2.74,1.48,2.74,2.58a1.8,1.8,0,0,1-2,1.66,7,7,0,0,1-3.25-1.34.5.5,0,0,0-.73.15l-.78,1.34c-.19.34-.08.45.11.64m-13.44-6.73v-4.29h3.51a2.15,2.15,0,0,1,2.14,2.09,2.19,2.19,0,0,1-2.14,2.2Zm-2.81,7.79a.41.41,0,0,0,.41.41h2a.43.43,0,0,0,.41-.41v-5.49h2.39l2.87,5.7a.36.36,0,0,0,.34.2h2.26a.41.41,0,0,0,.37-.63l-2.95-5.47a4.73,4.73,0,0,0,3.18-4.34,4.66,4.66,0,0,0-4.69-4.63h-6.15a.41.41,0,0,0-.41.41Zm-15.35,0a.41.41,0,0,0,.41.41h8.76a.42.42,0,0,0,.41-.41v-1.77a.41.41,0,0,0-.41-.4h-6.38v-3.77h5.32a.41.41,0,0,0,.41-.41v-1.79a.43.43,0,0,0-.41-.41h-5.32v-3.53h6.38a.41.41,0,0,0,.41-.41V221.6a.41.41,0,0,0-.41-.41h-8.76a.41.41,0,0,0-.41.41Zm-12.27.38a.38.38,0,0,0,.36.24h.22a.38.38,0,0,0,.36-.24l6.68-14.48a.38.38,0,0,0-.37-.56h-2.19a.39.39,0,0,0-.37.24l-4.13,9.25h-.15l-4.14-9.25a.39.39,0,0,0-.36-.24H117a.38.38,0,0,0-.36.56Zm-14.12-.38a.43.43,0,0,0,.41.41h2a.43.43,0,0,0,.41-.41V221.6a.43.43,0,0,0-.41-.41h-2a.43.43,0,0,0-.41.41Zm-19.33,0a.43.43,0,0,0,.41.41h2a.41.41,0,0,0,.41-.41v-9.26h0l9,9.88h.52a.41.41,0,0,0,.41-.39V221.6a.43.43,0,0,0-.41-.41h-2a.41.41,0,0,0-.41.41v8.89h0l-9-9.51h-.54a.4.4,0,0,0-.41.38Zm-18.38-5.3a6,6,0,0,0,12,0v-9a.42.42,0,0,0-.4-.41H81a.41.41,0,0,0-.41.41v8.83a3.13,3.13,0,1,1-6.26,0v-8.8a.41.41,0,0,0-.41-.41H71.82a.42.42,0,0,0-.4.41Z" transform="translate(-54 -51.53)"/><path class="cls-1" d="M221.89,208.53a8.67,8.67,0,0,0,5.92,2.1c3.8,0,6.19-2.56,6.19-5.33,0-3.47-3-5-5.62-6.08-2.18-.89-3.18-1.75-3.18-3a2.15,2.15,0,0,1,2.37-1.88,8.88,8.88,0,0,1,3.74,1.48.7.7,0,0,0,.94-.32l1-1.54a.65.65,0,0,0-.16-.88,9.38,9.38,0,0,0-5.38-1.8c-4.28,0-6,2.76-6,5.16,0,3.17,2.53,4.79,5.06,5.81,2.26.92,3.42,1.86,3.42,3.23a2.25,2.25,0,0,1-2.46,2.07c-1.74,0-3.92-1.58-4.06-1.66a.62.62,0,0,0-.91.18l-1,1.67c-.24.43-.11.57.13.81m-9.6,1.32a.53.53,0,0,0,.51.51h2.5a.53.53,0,0,0,.51-.51V192a.53.53,0,0,0-.51-.52h-2.5a.53.53,0,0,0-.51.52Zm-21.77-6.62a7.5,7.5,0,0,0,15,0V192a.54.54,0,0,0-.52-.52h-2.55a.52.52,0,0,0-.51.52v11a3.92,3.92,0,1,1-7.83,0V192a.52.52,0,0,0-.51-.52H191a.53.53,0,0,0-.51.52ZM169.26,201a6.18,6.18,0,1,1,6.17,6.16,6.23,6.23,0,0,1-6.17-6.16m-3.49,0a9.67,9.67,0,1,0,9.66-9.71,9.6,9.6,0,0,0-9.66,9.71m-14.21,8.88a.52.52,0,0,0,.51.51h9.85a.52.52,0,0,0,.51-.51v-2.21a.51.51,0,0,0-.51-.51h-6.86V192a.54.54,0,0,0-.52-.52h-2.47a.52.52,0,0,0-.51.52Zm-23.55,0a.54.54,0,0,0,.51.51H131a.54.54,0,0,0,.52-.51v-15.1h4.11a.51.51,0,0,0,.51-.51V192a.51.51,0,0,0-.51-.52H123.9a.51.51,0,0,0-.51.52v2.2a.51.51,0,0,0,.51.51H128Zm-25.48,0a.53.53,0,0,0,.51.51h2.45a.51.51,0,0,0,.51-.51V198.28h0l11.25,12.35h.64a.51.51,0,0,0,.51-.49V192a.53.53,0,0,0-.51-.52h-2.47a.51.51,0,0,0-.51.52v11.11h0l-11.19-11.89H103a.5.5,0,0,0-.51.48Zm-10.57,0a.53.53,0,0,0,.51.51H95a.53.53,0,0,0,.51-.51V192a.53.53,0,0,0-.51-.52h-2.5A.53.53,0,0,0,92,192Zm-16.23-5.92L78.37,198h.08l2.69,5.92ZM70,210.36h2.34a.82.82,0,0,0,.79-.54l1.31-2.91h8l1.32,2.91a.77.77,0,0,0,.78.54H86.9a.48.48,0,0,0,.46-.7l-8.29-18.11a.46.46,0,0,0-.46-.29h-.27a.5.5,0,0,0-.46.29l-8.36,18.11a.47.47,0,0,0,.45.7m-15.71-1.83a8.67,8.67,0,0,0,5.92,2.1c3.79,0,6.19-2.56,6.19-5.33,0-3.47-3-5-5.62-6.08-2.18-.89-3.18-1.75-3.18-3a2.14,2.14,0,0,1,2.37-1.88,8.94,8.94,0,0,1,3.74,1.48c.32.22.72,0,.94-.32l1-1.54a.65.65,0,0,0-.16-.88,9.41,9.41,0,0,0-5.38-1.8c-4.28,0-6.05,2.76-6.05,5.16,0,3.17,2.52,4.79,5.05,5.81,2.26.92,3.42,1.86,3.42,3.23a2.24,2.24,0,0,1-2.45,2.07c-1.75,0-3.93-1.58-4.06-1.66a.62.62,0,0,0-.91.18l-1,1.67c-.24.43-.11.57.13.81" transform="translate(-54 -51.53)"/><path class="cls-1" d="M142.41,169.23a84,84,0,0,1-18.64-11.66c-12.51-10.35-19.11-22.63-19.11-35.49V69.16h23a7.53,7.53,0,0,1-.13-1.35A6.78,6.78,0,0,1,134.27,61h1.59V55.6h4.07V51.53h8.14V55.6h4.07V61h1.59a6.76,6.76,0,0,1,6.64,8.13h23v52.92c0,12.86-6.6,25.14-19.11,35.49a83.71,83.71,0,0,1-18.64,11.66l-1.59.68Z" transform="translate(-54 -51.53)"/><path class="cls-2" d="M144,167l-.53-.22a81.34,81.34,0,0,1-18-11.26c-11.86-9.82-18.13-21.37-18.13-33.41V71.88h25.21l-1.19-1.19a4.09,4.09,0,0,1,0-5.76,4,4,0,0,1,2.88-1.19h8.37V61h-4.07V58.31h4.07V54.24h2.72v4.07h4.07V61h-4.07v2.72h8.37a4.07,4.07,0,0,1,2.88,6.95l-1.19,1.19h25.21v50.19c0,12-6.27,23.59-18.13,33.41a81.34,81.34,0,0,1-18,11.26Zm-31.95-33.67c2.56,7.11,7.62,13.83,15.13,20.06A80.9,80.9,0,0,0,144,164a80.9,80.9,0,0,0,16.82-10.65c7.51-6.23,12.57-12.95,15.13-20.06H162.28a5.83,5.83,0,0,1-2.41-11.15,5,5,0,0,0-2.84-9c-7.36,0-8.71,12.35-8.95,16q0,.81,0,1.41h3.73v2.72h-6.44v1.3a8.19,8.19,0,0,0,8.18,8.18h1.36v1.36a5.67,5.67,0,0,1-2.4,4.44,8,8,0,0,1-3.4,1.56,11.22,11.22,0,0,1-4.32,7.28L144,158l-.77-.54a11.14,11.14,0,0,1-4.32-7.28,8,8,0,0,1-3.41-1.56,5.68,5.68,0,0,1-2.39-4.44v-1.35h1.35a8.19,8.19,0,0,0,8.18-8.18v-1.3h-6.4v-2.71H140c0-.43,0-.95,0-1.54-.26-3.84-1.66-15.92-8.94-15.92a5,5,0,0,0-2.84,9,5.83,5.83,0,0,1-2.41,11.15Zm24.12,12.06a5.06,5.06,0,0,0,4,2.19h1.35v1.36a8.06,8.06,0,0,0,2.46,5.61,8,8,0,0,0,2.46-5.61v-1.36h1.36a5.08,5.08,0,0,0,4-2.19,10.89,10.89,0,0,1-7.82-5.5A10.92,10.92,0,0,1,136.17,145.35Zm23-17.9a3.13,3.13,0,0,0,3.13,3.12H176.8a32.84,32.84,0,0,0,1.12-8.5V74.59H110.08v47.48a32.84,32.84,0,0,0,1.12,8.5h14.52a3.13,3.13,0,0,0,3.13-3.12c0-1-.47-1.89-2-2.9-7.93-1.72-11.95-5.43-11.95-11a10.84,10.84,0,0,1,10.82-10.83c4.86,0,9.33,3.25,12.6,9.16l.51,1a24.82,24.82,0,0,0-.94-4.45c-2.27-6.48-3.35-10-3.35-12.41,0-4,2.74-7.72,4.94-10.75l.22-.31c1.66-2.29,3.16-4.42,3.17-4.44L144,78.84l1.11,1.58s1.51,2.15,3.17,4.44l.22.31c2.2,3,4.94,6.8,4.94,10.75,0,2.42-1.08,5.93-3.35,12.4a23.92,23.92,0,0,0-.94,4.46c.18-.35.36-.61.55-1,3.27-5.91,7.74-9.16,12.6-9.16a10.84,10.84,0,0,1,10.83,10.83c0,5.62-4,9.33-12,11C159.62,125.56,159.15,126.47,159.15,127.45Zm-16.53,3.12h2.72c.29-11.17.89-19.49,2.17-23.14,2.12-6.05,3.2-9.49,3.2-11.51,0-3.07-2.45-6.45-4.42-9.16l-.23-.31L144,83.55l-2.08,2.9-.23.31c-2,2.72-4.41,6.09-4.41,9.16,0,2,1.07,5.45,3.19,11.51C141.72,111.05,142.24,119.4,142.62,130.57Zm-16.9-25.19a8.13,8.13,0,0,0-8.11,8.12c0,4.1,3,6.2,6.23,7.39A7.66,7.66,0,0,1,131,110.4a8.63,8.63,0,0,1,3.81.87C132.42,107.78,129.35,105.38,125.72,105.38Zm31.31,5a7.66,7.66,0,0,1,7.14,10.49c3.25-1.19,6.22-3.29,6.22-7.39a8.13,8.13,0,0,0-8.11-8.12c-3.63,0-6.7,2.4-9.06,5.89A8.63,8.63,0,0,1,157,110.4ZM145.36,71.88h6.22l3.11-3.11a1.36,1.36,0,0,0-1-2.32h-8.37Zm-8.94,0h6.22V66.45h-8.37a1.36,1.36,0,0,0-1,2.32Z" transform="translate(-54 -51.53)"/><path class="cls-1" d="M217.49,236v-2.43h-.7a.21.21,0,0,1-.21-.21V233a.22.22,0,0,1,.21-.21H219a.21.21,0,0,1,.21.21v.39a.21.21,0,0,1-.21.21h-.7V236a.22.22,0,0,1-.21.21h-.43A.21.21,0,0,1,217.49,236Zm2.12,0,.57-3.09a.19.19,0,0,1,.21-.16h0a.2.2,0,0,1,.19.12l.95,2,1-2a.17.17,0,0,1,.18-.12h.05a.19.19,0,0,1,.2.16l.59,3.1a.21.21,0,0,1-.21.24h-.43a.22.22,0,0,1-.21-.18l-.24-1.37-.7,1.49a.19.19,0,0,1-.18.1h-.06a.2.2,0,0,1-.19-.11l-.67-1.48-.26,1.38a.22.22,0,0,1-.21.17h-.39A.21.21,0,0,1,219.61,236Z" transform="translate(-54 -51.53)"/></svg>